<svg version="1.1" id="Layer_1" xmlns="http://www.w3.org/2000/svg" xmlns:xlink="http://www.w3.org/1999/xlink" x="0px" y="0px"
	 width="100%" viewBox="0 0 672 1024" enable-background="new 0 0 672 1024" xml:space="preserve">
<path fill="#FFA500" opacity="1.000000" stroke="none" 
	d="
M643.278625,530.972351 
	C635.698181,578.679504 612.636230,617.557495 578.563416,650.346436 
	C540.017883,687.439636 494.400543,711.885132 442.778870,725.368591 
	C413.690308,732.966370 384.140533,736.756287 354.042389,737.550476 
	C297.502289,739.042419 242.938095,730.054016 190.876343,707.839172 
	C143.874130,687.783203 103.883553,658.231506 73.243553,616.916931 
	C53.753124,590.636353 41.185684,561.303162 37.040672,528.716797 
	C33.095577,497.702057 37.679867,467.672424 49.027836,438.654266 
	C64.549614,398.963135 91.428810,368.186646 124.969337,342.757141 
	C165.773666,311.820435 212.293365,294.327179 262.119965,284.591431 
	C290.832306,278.981262 319.829163,276.882477 349.002869,277.791290 
	C409.467010,279.674835 467.597565,291.274933 521.273743,320.592987 
	C560.709473,342.132812 594.088196,370.361511 617.850159,408.989746 
	C632.999573,433.617126 641.877136,460.336975 644.476868,489.244385 
	C645.724915,503.121277 645.074524,516.807434 643.278625,530.972351 
M573.834717,606.346863 
	C582.522583,594.476074 590.030396,581.901733 596.088745,568.494995 
	C607.292908,543.701294 612.070007,517.660583 609.365356,490.613953 
	C606.073792,457.698639 592.649658,428.780365 572.197998,403.065643 
	C545.489197,369.483673 511.037567,346.447479 471.678009,330.326721 
	C445.196716,319.480591 417.572296,313.030823 389.269012,309.065063 
	C371.417297,306.563721 353.468201,305.540955 335.530518,305.622528 
	C322.437622,305.682037 309.297882,306.805542 296.213165,308.213318 
	C261.006958,312.001099 227.052948,320.490967 194.968323,335.514984 
	C143.164368,359.772980 102.803253,395.693481 81.686249,450.232544 
	C69.109077,482.715668 66.897308,516.048279 77.093811,549.576233 
	C88.715332,587.789917 111.934181,618.188538 142.568848,643.196655 
	C174.057617,668.902100 210.087082,685.596191 249.048111,696.469116 
	C294.240051,709.080933 340.208588,712.155945 386.575531,706.344238 
	C419.205322,702.254333 450.893005,693.916992 480.849670,679.741943 
	C517.280334,662.503540 548.953186,639.328674 573.834717,606.346863 
z"/>
<path fill="#FFA500" opacity="1.000000" stroke="none" 
	d="
M412.122406,472.643860 
	C423.148621,456.019348 433.999481,439.637634 444.656860,423.130981 
	C446.686096,419.988037 448.942505,418.546967 452.762787,418.658417 
	C461.084961,418.901245 469.420898,418.810760 477.748291,418.676300 
	C481.695770,418.612549 483.295868,419.373596 482.583588,424.106812 
	C477.021515,461.068268 471.772217,498.076843 466.461731,535.075989 
	C464.691010,547.413269 462.865631,559.746460 461.384705,572.119751 
	C460.775604,577.208740 458.719452,579.409302 453.403503,579.097412 
	C446.928314,578.717590 440.414642,579.021851 433.918060,578.970581 
	C427.917084,578.923279 427.040375,578.009338 427.859924,572.272217 
	C429.480194,560.929626 431.229034,549.605408 432.897247,538.269653 
	C435.429962,521.059387 437.939301,503.845703 439.741211,486.293457 
	C426.973022,504.642853 414.204865,522.992310 401.436676,541.341736 
	C400.865265,541.373779 400.293854,541.405823 399.722443,541.437866 
	C392.311096,522.772278 384.899750,504.106628 376.978699,484.157288 
	C374.333954,494.871460 373.806274,504.454559 372.389618,513.881775 
	C369.625092,532.278931 367.329987,550.746704 364.560699,569.143127 
	C363.035217,579.276794 362.778961,579.233582 352.287354,579.125427 
	C346.790497,579.068787 341.293213,579.046387 335.796478,578.981262 
	C331.752258,578.933350 330.323242,577.153015 330.955261,572.939453 
	C334.971405,546.163147 338.780365,519.355835 342.685638,492.562805 
	C346.038940,469.556854 349.445770,446.558685 352.786957,423.550964 
	C353.312622,419.931458 355.156677,418.561401 358.868622,418.651428 
	C367.526062,418.861359 376.197540,418.888977 384.852570,418.630859 
	C388.895203,418.510284 390.779114,420.133057 392.096619,423.819275 
	C397.529327,439.019226 403.185089,454.140045 408.867676,469.249054 
	C409.399719,470.663635 408.997192,473.248535 412.122406,472.643860 
z"/>
<path fill="#FFA500" opacity="1.000000" stroke="none" 
	d="
M166.131622,621.914795 
	C155.868423,615.108643 146.019363,608.356079 137.330978,600.216614 
	C138.230972,598.175720 139.765991,598.690002 140.967819,598.682678 
	C149.962723,598.627869 158.958237,598.686768 167.953369,598.653809 
	C171.769394,598.639832 175.045776,600.446289 178.398483,601.793762 
	C209.381561,614.246582 241.701920,620.701111 274.824432,623.780457 
	C297.375000,625.876892 319.952301,627.133728 342.601593,626.635254 
	C370.725525,626.016235 398.688019,623.572937 426.497833,619.251343 
	C451.892029,615.305054 476.810303,609.707764 500.470184,599.358582 
	C502.787872,598.344849 505.289459,598.021973 507.795319,598.006348 
	C517.622864,597.945129 527.450745,597.926880 537.278503,597.938049 
	C538.710449,597.939636 540.284302,597.666809 541.920654,599.421448 
	C537.452148,604.840088 532.112305,609.304016 526.840881,613.719666 
	C494.308807,640.970520 456.648346,657.180603 415.231171,665.321350 
	C390.658417,670.151306 365.823181,672.697815 340.858948,672.065186 
	C280.786102,670.542725 224.105072,656.071167 171.916199,625.592041 
	C170.048370,624.501221 168.257660,623.278259 166.131622,621.914795 
z"/>
<path fill="#FFA500" opacity="1.000000" stroke="none" 
	d="
M334.169678,443.888916 
	C330.514343,469.485168 326.917084,494.643555 323.280212,519.796265 
	C320.641815,538.043457 317.919403,556.278687 315.313446,574.530518 
	C314.855896,577.735352 313.339722,579.205627 310.052277,579.152222 
	C303.723602,579.049255 297.374847,578.831787 291.067352,579.210571 
	C286.102478,579.508789 283.645447,577.714539 281.970459,572.965271 
	C272.781525,546.910645 263.282532,520.965332 253.869904,494.989777 
	C252.914520,492.353271 252.165253,489.599030 250.125916,487.226257 
	C248.257385,488.185028 248.543991,489.945007 248.336884,491.479980 
	C245.117035,515.343872 241.893143,539.207275 238.678741,563.071960 
	C238.190628,566.695801 237.688263,570.319214 237.297012,573.954102 
	C236.920898,577.448242 235.456619,579.320923 231.556396,579.218384 
	C223.732101,579.012573 215.898682,579.120056 208.069290,579.155457 
	C204.576675,579.171265 202.875275,578.097229 203.478287,574.078491 
	C205.820602,558.468506 207.890823,542.817932 210.106277,527.188721 
	C213.625702,502.360535 217.179169,477.537140 220.720734,452.712128 
	C222.104874,443.009857 223.509583,433.310455 224.876129,423.605713 
	C225.356232,420.196045 226.784225,418.420837 230.699707,418.534760 
	C239.687164,418.796204 248.693466,418.781006 257.680756,418.506378 
	C261.664307,418.384705 263.610748,419.740387 264.953644,423.536102 
	C272.945770,446.125916 281.164062,468.635925 289.361755,491.152588 
	C290.002960,492.913818 290.001740,495.205597 292.618927,496.063568 
	C295.318695,492.759644 294.992828,488.569824 295.526581,484.815460 
	C298.448486,464.262482 301.074341,443.667389 303.785461,423.084595 
	C304.117645,420.562866 304.800903,418.657501 307.977753,418.636749 
	C315.967285,418.584473 323.957214,418.146057 331.943634,418.220825 
	C337.271790,418.270691 337.857422,419.403381 336.995148,424.727905 
	C335.986694,430.955139 335.132080,437.207245 334.169678,443.888916 
z"/>
<path fill="#FFA500" opacity="1.000000" stroke="none" 
	d="
M503.022949,383.905884 
	C511.430695,389.300385 519.233093,394.884644 526.181030,401.304474 
	C525.492981,403.288116 524.172241,402.946228 523.076355,403.042542 
	C522.082520,403.129852 521.073425,403.045868 520.080444,403.138489 
	C504.733063,404.569824 490.463196,402.020599 476.099365,395.552551 
	C452.170654,384.777344 426.446228,379.699493 400.446381,376.312042 
	C375.814362,373.102814 351.075592,371.602264 326.261414,372.397675 
	C299.158936,373.266418 272.182739,375.383331 245.469452,380.650330 
	C224.683411,384.748657 203.660034,388.542755 184.775558,398.102661 
	C171.954880,404.592865 159.299088,402.566010 146.372543,402.855499 
	C145.948090,402.865021 145.514145,402.450928 144.268814,401.822784 
	C147.968475,396.906799 152.157043,392.811218 156.649445,389.046417 
	C180.496704,369.061615 208.388412,357.257263 238.000031,348.923553 
	C266.887207,340.793671 296.371429,337.406128 326.311737,337.897217 
	C368.105621,338.582642 409.257019,343.408905 448.906006,357.568085 
	C467.803802,364.316711 485.754639,372.990814 503.022949,383.905884 
z"/>
<path fill="#FFA500" opacity="1.000000" stroke="none" 
	d="
M501.276672,434.298218 
	C516.693237,420.065765 534.564148,415.242371 554.623230,419.120544 
	C572.564453,422.589203 585.421143,438.742798 585.328552,457.126160 
	C585.269836,468.793182 587.828979,468.305756 574.134460,468.294708 
	C569.635498,468.291077 565.134949,468.195435 560.638184,468.289246 
	C557.451538,468.355743 555.999268,467.267303 555.487000,463.805359 
	C553.561584,450.792938 541.462280,445.156555 529.769531,451.565887 
	C522.656494,455.464905 521.409241,463.808319 527.331177,469.518097 
	C533.127014,475.106384 540.250732,478.897430 546.963257,483.227356 
	C553.680664,487.560364 560.397278,491.896515 567.179260,496.127075 
	C591.934448,511.569000 588.526123,543.626953 575.845154,559.981506 
	C568.846680,569.007324 559.481384,574.451782 548.726379,577.786438 
	C532.384827,582.853210 516.252930,582.420776 500.382080,575.907898 
	C487.211426,570.503174 480.686890,560.137634 478.690948,546.463928 
	C477.967224,541.505859 477.607117,536.583313 478.586975,531.575623 
	C479.029633,529.313110 479.656372,527.925110 482.158234,527.643738 
	C490.633240,526.690735 499.128510,526.991272 507.619934,527.084717 
	C510.463623,527.115967 511.020172,529.109680 511.236359,531.507263 
	C512.260803,542.868896 514.287964,545.845032 522.302185,548.061768 
	C532.134277,550.781189 543.805176,547.542847 548.722717,540.730713 
	C552.692261,535.231873 552.280884,530.842529 547.317993,526.124451 
	C544.012756,522.982178 539.966614,520.963562 536.001160,518.853333 
	C525.992920,513.527222 516.115051,507.990753 507.011749,501.188873 
	C486.453278,485.827759 482.586487,459.186981 497.893921,438.443848 
	C498.881805,437.105133 499.982727,435.849854 501.276672,434.298218 
z"/>
<path fill="#FFA500" opacity="1.000000" stroke="none" 
	d="
M185.105194,553.911682 
	C172.675690,581.604248 128.950211,589.584290 105.071243,571.847717 
	C94.998604,564.366150 90.649200,553.719666 89.797836,541.639343 
	C89.190437,533.020752 89.527763,524.357178 90.733795,515.743530 
	C91.288239,511.783661 92.977684,509.770172 97.154099,509.834167 
	C104.813042,509.951508 112.476242,509.932007 120.135628,509.824493 
	C124.327110,509.765686 125.831009,511.780884 125.327629,515.718018 
	C124.674408,520.827087 123.829536,525.921326 123.424133,531.050171 
	C122.713821,540.036865 125.513748,545.001892 132.057617,547.056946 
	C139.353104,549.348083 147.497543,546.322083 151.786346,539.958435 
	C155.408508,534.583923 155.709183,528.321899 156.503815,522.301086 
	C160.761230,490.043030 164.818054,457.757965 168.794876,425.463837 
	C169.394836,420.591766 171.038315,418.151154 176.506607,418.336761 
	C185.146149,418.629944 193.811813,418.148743 202.466522,418.001160 
	C206.347382,417.934998 207.657654,419.603058 207.075439,423.602173 
	C203.057434,451.200043 199.434708,478.857025 195.228271,506.425293 
	C192.805298,522.305054 192.019363,538.585144 185.105194,553.911682 
z"/>
</svg>